# xmcd
#
# Track frame offsets: 
#        150
#        11286
#        28057
#        43017
#        63766
#        81896
#        108524
#        124863
#        144685
#        158935
#        178632
#        197486
#
# Disc length: 2907 seconds
#
# Revision: 0
# Processed by: cddbd v1.5.2PL0 Copyright (c) Steve Scherf et al.
# Submitted via: ExactAudioCopy v1.3
#
DISCID=9b0b590c
DTITLE=Bill Grady - Nothing Runs Free
DYEAR=2018
DGENRE=Folk Blues
TTITLE0=Don't Pray For Me
TTITLE1=Feet Don't Fail Me Now
TTITLE2=The Wanderer
TTITLE3=Train Came Right On Time
TTITLE4=Weed, Wine, and Women
TTITLE5=Ain't Lookin' Back
TTITLE6=Automatic Weapon
TTITLE7=Hop On The Bus
TTITLE8=Annie's Waltz
TTITLE9=Gypsy Girl
TTITLE10=French Quarter Mile
TTITLE11=Where I Belong
EXTD=
EXTT0=
EXTT1=
EXTT2=
EXTT3=
EXTT4=
EXTT5=
EXTT6=
EXTT7=
EXTT8=
EXTT9=
EXTT10=
EXTT11=
PLAYORDER=
